<svg version="1.1" id="Layer_1" xmlns="http://www.w3.org/2000/svg" xmlns:xlink="http://www.w3.org/1999/xlink" x="0px" y="0px" width="144px" height="25px" viewBox="0 0 409.25 70.87" enable-background="new 0 0 409.25 70.87" xml:space="preserve">
<g>
	<path fill="currentColor" d="M36.029,67.076c-18.142,0-32.521-14.129-32.521-31.937c0-18.059,14.212-32.02,32.605-32.02   c17.64,0,31.769,14.296,31.769,31.937C67.882,53.114,54.004,67.076,36.029,67.076z M35.945,14.155   c-11.872,0-20.9,9.029-20.9,20.984c0,11.704,9.196,20.9,20.9,20.9c11.705,0,20.399-8.945,20.399-20.816   C56.345,23.352,47.399,14.155,35.945,14.155z"/>
	<path fill="currentColor" d="M106.668,65.989v-4.431c-4.18,4.097-7.691,5.518-13.293,5.518c-10.785,0-17.64-6.271-17.64-22.573v-24.83   h11.119V42.33c0,12.289,3.428,14.547,8.778,14.547c3.762,0,6.772-1.589,8.444-4.265c1.254-2.09,1.756-4.932,1.756-11.119v-21.82   h11.119v46.316H106.668z"/>
	<path fill="currentColor" d="M138.683,29.789v36.2h-11.119v-36.2h-5.434V19.673h5.434V4.206h11.119v15.467h6.688v10.116H138.683z"/>
	<path fill="currentColor" d="M165.015,67.076c-9.196,0-15.801-5.017-16.971-15.801h11.202c1.087,3.929,2.927,5.602,6.187,5.602   c2.843,0,5.017-1.923,5.017-4.515c0-2.676-0.418-3.428-7.858-5.937c-9.196-3.093-12.875-6.938-12.875-13.711   c0-7.942,6.771-14.129,15.383-14.129c7.858,0,14.798,5.184,15.216,13.878h-10.868c-0.502-2.424-2.007-3.678-4.348-3.678   c-2.425,0-4.264,1.672-4.264,3.929c0,2.425,0.251,2.592,7.858,5.017c9.698,3.01,12.875,6.688,12.875,13.544   C181.568,60.137,174.295,67.076,165.015,67.076z"/>
	<path fill="currentColor" d="M201.378,29.789v36.2h-11.119v-36.2h-5.435V19.673h5.435V4.206h11.119v15.467h6.688v10.116H201.378z"/>
	<path fill="currentColor" d="M235.401,67.076c-13.543,0-24.579-10.868-24.579-24.245c0-13.293,11.036-24.245,24.496-24.245   c13.962,0,24.746,10.785,24.746,24.58C260.064,56.208,248.862,67.076,235.401,67.076z M235.401,28.786   c-7.273,0-13.376,6.271-13.376,13.878c0,7.942,5.936,14.213,13.46,14.213c7.357,0,13.377-6.271,13.377-14.046   C248.862,35.14,242.843,28.786,235.401,28.786z"/>
	<path fill="currentColor" d="M289.07,67.076c-13.711,0-24.747-10.785-24.747-24.245c0-13.627,10.701-24.245,24.412-24.245   c10.534,0,19.73,5.937,23.325,16.554h-12.54c-2.258-4.264-5.769-6.354-10.785-6.354c-7.691,0-13.209,5.852-13.209,13.962   c0,8.109,5.769,14.129,13.46,14.129c4.599,0,7.775-1.84,10.534-6.104h12.54C308.215,61.141,299.854,67.076,289.07,67.076z"/>
	<path fill="currentColor" d="M346.752,65.989l-15.801-21.653v21.653h-11.119V4.206h11.119v37.287l14.798-21.82h13.293L342.488,42.33   l19.229,23.659H346.752z"/>
</g>
<g>
	<path fill="currentColor" d="M369.631,6.74v10.02h-2.258V6.74h-2.258V4.582h6.773V6.74H369.631z"/>
	<path fill="currentColor" d="M383.504,16.76V7.63l-3.181,9.13h-1.846l-3.181-9.13v9.13h-2.258V4.582h3.099l3.279,9.229l3.247-9.229   h3.098V16.76H383.504z"/>
</g>
</svg>